# xmcd
#
# Track frame offsets:
#	150
#	13980
#	34257
#	53407
#	69507
#	89603
#
# Disc length: 1465 seconds
#
# Revision: 1
# Processed by: cddbd v1.5.2PL0 Copyright (c) Steve Scherf et al.
# Submitted via: audiograbber 1.83.01
#
DISCID=4a05b706
DTITLE=Pete Kennedy - The Nashville Sessions Vol.2
DYEAR=1900
DGENRE=Country
TTITLE0=Find My Way
TTITLE1=Do You Take This Girl
TTITLE2=Love Like That
TTITLE3=Crazy Country Girl
TTITLE4=Love You Anyway
TTITLE5=Do What's Right
EXTD=
EXTT0=
EXTT1=
EXTT2=
EXTT3=
EXTT4=
EXTT5=
PLAYORDER=
